<?xml version="1.0" encoding="UTF-8"?>
<svg id="Layer_2" data-name="Layer 2" xmlns="http://www.w3.org/2000/svg" viewBox="0 0 353.17 353.17">
  <defs>
    <style>
      .cls-1 {
        fill: #95d400;
      }

      .cls-2 {
        fill: #00b1e9;
      }

      .cls-3 {
        fill: #dbdbdb;
      }

      .cls-4 {
        fill: #ff3615;
      }

      .cls-5 {
        fill: #999;
      }
    </style>
  </defs>
  <g id="Layer_1-2" data-name="Layer 1">
    <path class="cls-3" d="m353.17,176.59c0,84.06-58.73,154.4-137.4,172.22-2.16.49-4.34.94-6.53,1.35-10.58,1.98-21.49,3.01-32.65,3.01s-22.07-1.04-32.65-3.01c-2.19-.41-4.37-.86-6.53-1.35C58.73,330.99,0,260.64,0,176.59,0,79.06,79.06,0,176.59,0s176.59,79.06,176.59,176.59Z"/>
    <g>
      <path class="cls-2" d="m177.74,175.96c-30.18-28.09-64.59-41.13-97.11-36.56-4.47,11.54-6.93,24.08-6.93,37.19,0,56.82,46.06,102.89,102.89,102.89,5.99,0,11.86-.52,17.57-1.5-19.72-26.07-25.46-62.25-16.41-102.02Z"/>
      <path class="cls-4" d="m177.74,175.96c37.86-13.38,64.98-36.94,76.59-66.76-18.86-21.74-46.7-35.5-77.75-35.5-43.71,0-81.04,27.25-95.95,65.69,32.52-4.57,66.92,8.47,97.11,36.56Z"/>
      <path class="cls-1" d="m279.47,176.59c0-25.78-9.48-49.34-25.14-67.39-11.61,29.82-38.73,53.38-76.59,66.76-9.05,39.76-3.31,75.95,16.41,102.02,48.45-8.34,85.32-50.55,85.32-101.39Z"/>
    </g>
    <g>
      <path class="cls-5" d="m176.59,280.47c-57.28,0-103.89-46.6-103.89-103.89,0-12.94,2.36-25.58,7-37.55l1.86.72c-4.56,11.75-6.87,24.14-6.87,36.83,0,56.18,45.71,101.89,101.89,101.89,5.82,0,11.67-.5,17.4-1.49l.34,1.97c-5.84,1-11.81,1.51-17.74,1.51Z"/>
      <path class="cls-5" d="m81.57,139.76l-1.86-.72c7.49-19.32,20.47-35.82,37.54-47.72,17.46-12.18,37.98-18.61,59.35-18.61,30.13,0,58.74,13.06,78.5,35.84l-1.51,1.31c-19.38-22.34-47.44-35.15-76.99-35.15-41.74,0-79.93,26.14-95.02,65.06Z"/>
      <path class="cls-5" d="m194.32,278.96l-.34-1.97c48.96-8.42,84.49-50.65,84.49-100.4,0-24.53-8.84-48.23-24.9-66.73l1.51-1.31c16.37,18.87,25.38,43.03,25.38,68.04,0,50.73-36.23,93.78-86.15,102.37Z"/>
    </g>
  </g>
</svg>