<?xml version="1.0" encoding="UTF-8"?>
<svg id="Layer_2" data-name="Layer 2" xmlns="http://www.w3.org/2000/svg" viewBox="0 0 353.17 353.17">
  <defs>
    <style>
      .cls-1 {
        fill: #dbdbdb;
      }

      .cls-2 {
        fill: #b2b2b2;
      }
    </style>
  </defs>
  <g id="Layer_1-2" data-name="Layer 1">
    <g>
      <path class="cls-1" d="m353.17,176.59c0,75.31-47.15,139.61-113.54,165-7.71,2.95-15.68,5.37-23.86,7.22-2.16.49-4.34.94-6.53,1.35-10.58,1.98-21.49,3.01-32.65,3.01s-22.07-1.04-32.65-3.01c-2.19-.41-4.37-.86-6.53-1.35-9.65-2.19-18.99-5.16-27.96-8.85C45.22,313.53,0,250.34,0,176.59,0,79.06,79.06,0,176.59,0s176.59,79.06,176.59,176.59Z"/>
      <path class="cls-2" d="m239.63,188.54v153.04c-7.71,2.95-15.68,5.37-23.86,7.22-2.16.49-4.34.94-6.53,1.35-10.58,1.98-21.49,3.01-32.65,3.01s-22.07-1.04-32.65-3.01c-2.19-.41-4.37-.86-6.53-1.35-9.65-2.19-18.99-5.16-27.96-8.85v-151.41h130.19Z"/>
      <rect class="cls-2" x="109.44" y="122.9" width="130.19" height="52.58"/>
    </g>
  </g>
</svg>