<?xml version="1.0" encoding="UTF-8"?>
<svg id="Layer_2" data-name="Layer 2" xmlns="http://www.w3.org/2000/svg" viewBox="0 0 353.17 353.17">
  <defs>
    <style>
      .cls-1 {
        fill: #dbdbdb;
      }

      .cls-2 {
        fill: #b2b2b2;
      }
    </style>
  </defs>
  <g id="Layer_1-2" data-name="Layer 1">
    <g>
      <path class="cls-1" d="m353.17,176.59c0,84.06-58.73,154.4-137.4,172.22-2.16.49-4.34.94-6.53,1.35-10.58,1.98-21.49,3.01-32.65,3.01s-22.07-1.04-32.65-3.01c-2.19-.41-4.37-.86-6.53-1.35C58.73,330.99,0,260.64,0,176.59,0,79.06,79.06,0,176.59,0s176.59,79.06,176.59,176.59Z"/>
      <path class="cls-2" d="m215.77,188.09v160.72c-2.16.49-4.34.94-6.53,1.35-10.58,1.98-21.49,3.01-32.65,3.01s-22.07-1.04-32.65-3.01c-2.19-.41-4.37-.86-6.53-1.35v-160.72h78.36Z"/>
      <path class="cls-2" d="m213.79,151.53l-34.13-32.17c-1.73-1.63-4.43-1.63-6.16,0l-34.13,32.17-1.98,24.15c12.69.59,25.79.9,39.18.9s26.49-.31,39.18-.9l-1.98-24.15Z"/>
    </g>
  </g>
</svg>